<svg width="52" height="52" viewBox="0 0 52 52" fill="none" xmlns="http://www.w3.org/2000/svg">
<g id="air-conditioner 1">
<g id="Group">
<path id="Vector" d="M29.0469 11.7812C29.6078 11.7812 30.0625 11.3265 30.0625 10.7656C30.0625 10.2047 29.6078 9.75 29.0469 9.75C28.486 9.75 28.0312 10.2047 28.0312 10.7656C28.0312 11.3265 28.486 11.7812 29.0469 11.7812Z" fill="black"/>
<path id="Vector_2" d="M22.9531 11.7812C23.514 11.7812 23.9688 11.3265 23.9688 10.7656C23.9688 10.2047 23.514 9.75 22.9531 9.75C22.3922 9.75 21.9375 10.2047 21.9375 10.7656C21.9375 11.3265 22.3922 11.7812 22.9531 11.7812Z" fill="black"/>
<path id="Vector_3" d="M31.1797 29.8594C31.6284 29.5229 31.7193 28.8862 31.3828 28.4375C31.0463 27.9888 30.4097 27.8979 29.9609 28.2344C28.2505 29.5172 27.2695 31.4792 27.2695 33.6172C27.2695 35.7552 28.2505 37.7172 29.9609 39C31.155 39.8956 31.8398 41.2653 31.8398 42.7578C31.8398 44.2504 31.155 45.6201 29.9609 46.5157C29.5122 46.8521 29.4213 47.4888 29.7578 47.9375C30.0927 48.384 30.7289 48.4788 31.1797 48.1407C32.8901 46.8578 33.8711 44.8958 33.8711 42.7578C33.8711 40.6198 32.8901 38.6579 31.1797 37.375C29.9856 36.4794 29.3008 35.1098 29.3008 33.6172C29.3008 32.1246 29.9856 30.755 31.1797 29.8594Z" fill="black"/>
<path id="Vector_4" d="M40.3203 29.8594C40.769 29.5229 40.8599 28.8862 40.5234 28.4375C40.1869 27.9888 39.5504 27.8979 39.1016 28.2344C37.3911 29.5172 36.4102 31.4792 36.4102 33.6172C36.4102 35.7552 37.3911 37.7172 39.1016 39C40.2956 39.8956 40.9805 41.2653 40.9805 42.7578C40.9805 44.2504 40.2956 45.6201 39.1016 46.5157C38.6529 46.8521 38.562 47.4888 38.8984 47.9375C39.2333 48.384 39.8695 48.4788 40.3203 48.1407C42.0307 46.8578 43.0117 44.8958 43.0117 42.7578C43.0117 40.6198 42.0307 38.6579 40.3203 37.375C39.1262 36.4794 38.4414 35.1098 38.4414 33.6172C38.4414 32.1246 39.1262 30.755 40.3203 29.8594Z" fill="black"/>
<path id="Vector_5" d="M22.0391 29.8594C22.4878 29.523 22.5787 28.8863 22.2422 28.4376C21.9057 27.9889 21.2691 27.8979 20.8203 28.2344C19.1099 29.5173 18.1289 31.4793 18.1289 33.6173C18.1289 35.7552 19.1099 37.7172 20.8203 39.0001C22.0144 39.8957 22.6992 41.2653 22.6992 42.7579C22.6992 44.2505 22.0144 45.6201 20.8203 46.5157C20.3716 46.8522 20.2807 47.4889 20.6172 47.9376C20.952 48.384 21.5882 48.4788 22.0391 48.1407C23.7495 46.8579 24.7305 44.8959 24.7305 42.7579C24.7305 40.6199 23.7495 38.6579 22.0391 37.3751C20.845 36.4795 20.1602 35.1098 20.1602 33.6173C20.1602 32.1247 20.845 30.755 22.0391 29.8594Z" fill="black"/>
<path id="Vector_6" d="M12.8984 29.8594C13.3471 29.523 13.438 28.8863 13.1016 28.4376C12.765 27.9889 12.1285 27.8979 11.6797 28.2344C9.96927 29.5173 8.98828 31.4793 8.98828 33.6173C8.98828 35.7552 9.96927 37.7172 11.6797 39.0001C12.8738 39.8957 13.5586 41.2653 13.5586 42.7579C13.5586 44.2505 12.8738 45.6201 11.6797 46.5157C11.231 46.8522 11.1401 47.4889 11.4766 47.9376C11.8114 48.384 12.4476 48.4788 12.8984 48.1407C14.6089 46.8579 15.5898 44.8959 15.5898 42.7579C15.5898 40.6199 14.6089 38.6579 12.8984 37.3751C11.7044 36.4795 11.0195 35.1098 11.0195 33.6173C11.0195 32.1247 11.7044 30.755 12.8984 29.8594Z" fill="black"/>
<path id="Vector_7" d="M26 23.9688C26.5609 23.9688 27.0156 23.514 27.0156 22.9531C27.0156 22.3922 26.5609 21.9375 26 21.9375C25.4391 21.9375 24.9844 22.3922 24.9844 22.9531C24.9844 23.514 25.4391 23.9688 26 23.9688Z" fill="black"/>
<path id="Vector_8" d="M47.9375 3.65625H4.0625C1.82244 3.65625 0 5.47869 0 7.71875V22.9531C0 23.5141 0.454695 23.9688 1.01562 23.9688H21.4297C21.9906 23.9688 22.4453 23.5141 22.4453 22.9531C22.4453 22.3922 21.9906 21.9375 21.4297 21.9375H8.125V17.875H43.875V21.9375H30.5703C30.0095 21.9375 29.5547 22.3922 29.5547 22.9531C29.5547 23.5141 30.0095 23.9688 30.5703 23.9688H50.9844C51.5452 23.9688 52 23.5141 52 22.9531V7.71875C52 5.47869 50.1776 3.65625 47.9375 3.65625ZM49.9688 21.9375H45.9062V16.8594C45.9062 16.2984 45.4515 15.8438 44.8906 15.8438H7.10938C6.54845 15.8438 6.09375 16.2984 6.09375 16.8594V21.9375H2.03125V7.71875C2.03125 6.59872 2.94247 5.6875 4.0625 5.6875H47.9375C49.0575 5.6875 49.9688 6.59872 49.9688 7.71875V21.9375Z" fill="black"/>
</g>
</g>
</svg>
