<svg width="41" height="54" viewBox="0 0 41 54" fill="none" xmlns="http://www.w3.org/2000/svg">
<g id="Group">
<path id="Vector" d="M11.8082 32.8935C12.43 32.8935 12.9357 32.3877 12.9357 31.7658V20.5417C12.9357 19.92 12.4299 19.4141 11.8082 19.4141H5.37805C4.75621 19.4141 4.25049 19.9199 4.25049 20.5417V31.7658C4.25049 32.3876 4.75632 32.8935 5.37805 32.8935H11.8082ZM6.38338 31.3115L8.59316 27.2772L10.8028 31.3115H6.38338ZM11.3537 20.9961V29.024L9.86881 26.3131C9.63477 25.8859 9.18832 25.6207 8.70359 25.6207H8.48253C7.99769 25.6207 7.55124 25.886 7.3172 26.3132L5.83241 29.024V20.9961H11.3537Z" fill="black"/>
<path id="Vector_2" d="M39.3431 44.8762C39.78 44.8762 40.1341 44.5221 40.1341 44.0852V1.95275C40.1341 0.876023 39.2581 0 38.1814 0H2.60803C1.5313 0 0.655273 0.876023 0.655273 1.95275V7.43312C0.655273 7.86997 1.00944 8.22414 1.44629 8.22414C1.88314 8.22414 2.2373 7.86997 2.2373 7.43312V1.95275C2.2373 1.74836 2.40363 1.58203 2.60803 1.58203H14.8361V52.418H2.60803C2.40363 52.418 2.2373 52.2516 2.2373 52.0472V10.5972C2.2373 10.1603 1.88314 9.80617 1.44629 9.80617C1.00944 9.80617 0.655273 10.1603 0.655273 10.5972V52.0472C0.655273 53.124 1.5313 54 2.60803 54H38.1814C39.2582 54 40.1341 53.124 40.1341 52.0472V47.2493C40.1341 46.8124 39.78 46.4582 39.3431 46.4582C38.9063 46.4582 38.5521 46.8124 38.5521 47.2493V52.0472C38.5521 52.2516 38.3858 52.418 38.1814 52.418H16.4181V34.4756H16.8962C19.1316 34.4756 20.9502 32.657 20.9502 30.4215V1.58203H38.1813C38.3858 1.58203 38.552 1.74836 38.552 1.95275V44.0852C38.5521 44.5221 38.9063 44.8762 39.3431 44.8762ZM19.3682 30.4215C19.3682 31.7846 18.2592 32.8936 16.8962 32.8936H16.4181V1.58203H19.3682V30.4215Z" fill="black"/>
<path id="Vector_3" d="M35.3035 7.62552C35.3035 6.9521 34.7556 6.4043 34.0822 6.4043H25.9249C25.2515 6.4043 24.7036 6.9521 24.7036 7.62552V11.4835C24.7036 12.1569 25.2515 12.7047 25.9249 12.7047H34.0822C34.7556 12.7047 35.3035 12.1568 35.3035 11.4835V7.62552ZM33.7215 11.1228H26.2858V7.98633H33.7215V11.1228Z" fill="black"/>
<path id="Vector_4" d="M25.4946 13.7832C25.0578 13.7832 24.7036 14.1374 24.7036 14.5742C24.7036 15.0111 25.0578 15.3652 25.4946 15.3652H26.566C27.0028 15.3652 27.357 15.0111 27.357 14.5742C27.357 14.1374 27.0028 13.7832 26.566 13.7832H25.4946Z" fill="black"/>
<path id="Vector_5" d="M29.5552 13.7832C29.1183 13.7832 28.7642 14.1374 28.7642 14.5742C28.7642 15.0111 29.1183 15.3652 29.5552 15.3652H34.5122C34.9491 15.3652 35.3032 15.0111 35.3032 14.5742C35.3032 14.1374 34.9491 13.7832 34.5122 13.7832H29.5552Z" fill="black"/>
</g>
</svg>
