<svg width="46" height="46" viewBox="0 0 46 46" fill="none" xmlns="http://www.w3.org/2000/svg">
<g id="lamp 1" clip-path="url(#clip0_5_3)">
<path id="Vector" d="M44.5284 26.9879C45.0998 26.991 45.6269 26.6804 45.9007 26.1789C46.18 25.6774 46.1477 25.0604 45.8178 24.5905L43.7483 21.5709C42.429 19.6867 40.097 18.7928 37.8561 19.3122L29.9685 21.2596C29.8643 20.0776 28.876 19.1704 27.6894 19.1665V18.4001C27.6866 17.4286 27.0724 16.5639 26.1561 16.2414V6.13324H26.9229C28.6159 6.13148 29.9878 4.75961 29.9895 3.06662V0.76683C29.9895 0.343231 29.6463 0 29.2227 0H16.9562C16.5326 0 16.1894 0.343231 16.1894 0.76683V3.06662C16.1912 4.75961 17.5634 6.13148 19.256 6.13324H20.0229V16.2414C19.1065 16.5639 18.4924 17.4286 18.4895 18.4001V19.1665C17.2742 19.1701 16.2719 20.1194 16.2031 21.3326L1.7186 20.7002C1.12023 20.6686 0.557651 20.9862 0.275836 21.5151C-1.21742e-05 22.0177 0.0329774 22.6336 0.361468 23.1039L2.43209 26.1245C3.4874 27.6326 5.21619 28.5268 7.05693 28.5163C7.4872 28.5166 7.91606 28.4682 8.3358 28.3724L16.1894 26.2958V26.8335C16.1912 27.3785 16.4835 27.8817 16.9562 28.1534V29.9001C16.958 31.5931 18.3299 32.9649 20.0229 32.9667H26.1561C27.8491 32.9649 29.221 31.5931 29.2227 29.9001V28.1534C29.6954 27.8817 29.9878 27.3785 29.9895 26.8335V26.2284L44.4512 26.9861C44.4768 26.9872 44.5032 26.9879 44.5284 26.9879ZM38.2102 20.8037C39.8341 20.4254 41.5246 21.0719 42.4824 22.4367L44.5277 25.4546L28.3994 24.6102L29.6719 22.9123L38.2102 20.8037ZM17.7227 3.06662V1.53331H28.4562V3.06662C28.4552 3.91312 27.7694 4.59888 26.9229 4.59993H19.256C18.4099 4.59888 17.7238 3.91312 17.7227 3.06662ZM24.6228 6.13324V16.0999H21.5562V6.13324H24.6228ZM20.0229 18.4001C20.0232 17.9768 20.3661 17.6336 20.7893 17.6332H25.3896C25.8129 17.6336 26.1557 17.9768 26.1561 18.4001V19.1665H20.0229V18.4001ZM7.9687 26.8829C6.3466 27.2613 4.65712 26.6183 3.69692 25.2573L1.65789 22.2325L17.7708 22.9361L16.5025 24.627L7.9687 26.8829ZM27.6894 29.9001C27.6887 30.7466 27.0026 31.4323 26.1561 31.4334H20.0229C19.1764 31.4323 18.4906 30.7466 18.4895 29.9001V28.3668H27.6894V29.9001ZM28.4562 26.8335H17.7227V25.5553L19.8695 22.6933C20.04 22.4659 20.0709 22.1626 19.9495 21.9057C19.8277 21.6485 19.574 21.48 19.2901 21.4674L17.7364 21.3997C17.7683 21.0062 18.0951 20.7027 18.4895 20.6999H27.6894C28.1126 20.7002 28.4559 21.0434 28.4562 21.4667V21.978L26.3095 24.84C26.1392 25.0664 26.108 25.3682 26.2277 25.6248C26.3477 25.8813 26.5993 26.0508 26.8822 26.0656L28.4562 26.148V26.8335Z" fill="black"/>
<path id="Vector_2" d="M22.3232 38.3332V45.233C22.3232 45.6566 22.6665 45.9998 23.0897 45.9998C23.5133 45.9998 23.8566 45.6566 23.8566 45.233V38.3332C23.8566 37.9096 23.5133 37.5664 23.0897 37.5664C22.6665 37.5664 22.3232 37.9096 22.3232 38.3332Z" fill="black"/>
<path id="Vector_3" d="M17.9052 35.5663L12.6289 40.0129C12.3054 40.2859 12.264 40.7695 12.537 41.0931C12.8097 41.417 13.2936 41.4581 13.6172 41.1854L18.8934 36.7388C19.103 36.5623 19.2023 36.2872 19.1538 36.0176C19.1058 35.7481 18.9173 35.5245 18.6597 35.4315C18.4021 35.3382 18.1147 35.3898 17.9052 35.5663Z" fill="black"/>
<path id="Vector_4" d="M27.1036 35.6585C26.8309 35.9824 26.8723 36.4657 27.1956 36.7391L32.4718 41.1856C32.7957 41.4587 33.2793 41.4173 33.5524 41.0933C33.8254 40.7694 33.784 40.2854 33.4601 40.0127L28.1839 35.5662C28.0284 35.4349 27.8273 35.371 27.6248 35.3886C27.4219 35.4058 27.2345 35.503 27.1036 35.6585Z" fill="black"/>
</g>
<defs>
<clipPath id="clip0_5_3">
<rect width="46" height="46" fill="white"/>
</clipPath>
</defs>
</svg>
