<svg width="50" height="50" viewBox="0 0 50 50" fill="none" xmlns="http://www.w3.org/2000/svg">
<g id="light-bulb 1" clip-path="url(#clip0_6_0)">
<g id="Group">
<g id="Group_2">
<g id="Group_3">
<path id="Vector" d="M25.0003 4.99995C25.4605 4.99995 25.8337 4.62683 25.8337 4.16662V0.833325C25.8337 0.373121 25.4605 0 25.0003 0C24.5401 0 24.167 0.373121 24.167 0.833325V4.16662C24.167 4.62683 24.54 4.99995 25.0003 4.99995Z" fill="black"/>
<path id="Vector_2" d="M14.6956 3.81847L16.3623 6.70428C16.5898 7.10438 17.0985 7.24427 17.4986 7.01677C17.8987 6.78928 18.0386 6.28053 17.8111 5.88043C17.8094 5.8772 17.8075 5.87408 17.8056 5.87085L16.139 2.98505C15.9115 2.58495 15.4027 2.44505 15.0026 2.67255C14.6025 2.90005 14.4626 3.40879 14.6901 3.80889C14.6919 3.81212 14.6938 3.81535 14.6956 3.81847Z" fill="black"/>
<path id="Vector_3" d="M7.976 11.1324C7.97912 11.1343 7.98235 11.1361 7.98558 11.1379L10.8714 12.8046C11.2685 13.0373 11.779 12.9042 12.0117 12.5071C12.2444 12.11 12.1113 11.5995 11.7142 11.3668C11.7111 11.3649 11.7078 11.3631 11.7046 11.3613L8.8188 9.69461C8.42172 9.46191 7.91121 9.59503 7.6785 9.99211C7.44579 10.3891 7.57892 10.8997 7.976 11.1324Z" fill="black"/>
<path id="Vector_4" d="M10.0004 19.9993C10.0004 19.5391 9.62731 19.166 9.16711 19.166H5.83381C5.37361 19.166 5.00049 19.5391 5.00049 19.9993C5.00049 20.4595 5.37361 20.8327 5.83381 20.8327H9.16711C9.62731 20.8327 10.0004 20.4595 10.0004 19.9993Z" fill="black"/>
<path id="Vector_5" d="M10.8811 27.1891C10.8779 27.1909 10.8747 27.1928 10.8714 27.1947L7.98564 28.8613C7.58554 29.0887 7.44555 29.5975 7.67294 29.9976C7.90033 30.3977 8.40908 30.5377 8.80918 30.3103C8.81241 30.3084 8.81564 30.3065 8.81887 30.3046L11.7047 28.638C12.1048 28.4106 12.2448 27.9019 12.0174 27.5018C11.79 27.1017 11.2812 26.9617 10.8811 27.1891Z" fill="black"/>
<path id="Vector_6" d="M42.0245 28.867C42.0213 28.8651 42.0181 28.8632 42.0148 28.8613L39.129 27.1947C38.7321 26.9619 38.2214 27.095 37.9886 27.492C37.7558 27.889 37.889 28.3996 38.2859 28.6324C38.2892 28.6343 38.2924 28.6361 38.2956 28.638L41.1814 30.3047C41.5784 30.5375 42.089 30.4043 42.3218 30.0074C42.5546 29.6103 42.4215 29.0998 42.0245 28.867Z" fill="black"/>
<path id="Vector_7" d="M44.1666 19.166H40.8333C40.3731 19.166 40 19.5391 40 19.9993C40 20.4595 40.3731 20.8327 40.8333 20.8327H44.1666C44.6268 20.8327 44.9999 20.4595 44.9999 19.9993C44.9999 19.5391 44.6268 19.166 44.1666 19.166Z" fill="black"/>
<path id="Vector_8" d="M38.7134 12.9163C38.8597 12.9163 39.0034 12.8778 39.1301 12.8046L42.0159 11.138C42.416 10.9105 42.5559 10.4017 42.3284 10.0016C42.1009 9.60155 41.5921 9.46165 41.192 9.68915C41.1888 9.69092 41.1857 9.6928 41.1825 9.69467L38.2967 11.3613C37.8981 11.5914 37.7616 12.1011 37.9917 12.4996C38.1406 12.7575 38.4157 12.9163 38.7134 12.9163Z" fill="black"/>
<path id="Vector_9" d="M32.4992 7.00961C32.4995 7.00982 32.4998 7.01002 32.5001 7.01013C32.8988 7.24002 33.4084 7.10325 33.6383 6.70451C33.6383 6.7044 33.6384 6.7043 33.6384 6.7043L35.3051 3.81849C35.5379 3.42152 35.4048 2.9109 35.0078 2.67809C34.6108 2.44528 34.1002 2.5784 33.8674 2.97538C33.8655 2.97861 33.8636 2.98184 33.8618 2.98507L32.1951 5.87087C31.9647 6.2693 32.1008 6.77909 32.4992 7.00961Z" fill="black"/>
<path id="Vector_10" d="M26.667 33.3325C27.1273 33.3325 27.5004 32.9594 27.5004 32.4992V23.3326H29.167C31.0079 23.3326 32.5003 21.8402 32.5003 19.9993C32.5003 18.1584 31.0079 16.666 29.167 16.666C27.3261 16.666 25.8337 18.1584 25.8337 19.9993V21.666H24.1671V19.9993C24.1671 18.1584 22.6747 16.666 20.8338 16.666C18.9929 16.666 17.5005 18.1584 17.5005 19.9993C17.5005 21.8402 18.9929 23.3326 20.8338 23.3326H22.5004V32.4992C22.5004 32.9594 22.8736 33.3325 23.3338 33.3325C23.794 33.3325 24.1671 32.9594 24.1671 32.4992V23.3326H25.8337V32.4992C25.8337 32.9594 26.2067 33.3325 26.667 33.3325ZM27.5004 19.9993C27.5004 19.0788 28.2465 18.3327 29.167 18.3327C30.0875 18.3327 30.8337 19.0788 30.8337 19.9993C30.8337 20.9198 30.0875 21.666 29.167 21.666H27.5004V19.9993ZM22.5004 21.666H20.8338C19.9133 21.666 19.1671 20.9198 19.1671 19.9993C19.1671 19.0788 19.9133 18.3327 20.8338 18.3327C21.7543 18.3327 22.5004 19.0788 22.5004 19.9993V21.666Z" fill="black"/>
<path id="Vector_11" d="M25.6479 6.68263C18.2926 6.3293 12.0435 12.0054 11.6902 19.3606C11.4878 23.5722 13.2896 27.6314 16.5488 30.3066C17.1362 30.7667 17.4857 31.4664 17.5005 32.2124V34.1665C17.5048 35.2221 18.1718 36.1613 19.1671 36.5132V37.4998C19.1693 38.1168 19.401 38.7109 19.8171 39.1665C18.9504 40.1085 18.9504 41.5577 19.8171 42.4998C18.8907 43.5154 18.9629 45.0897 19.9786 46.0162C20.4399 46.437 21.0426 46.6691 21.6671 46.6664C22.1156 46.6782 22.4888 46.324 22.5005 45.8755C22.5051 45.7005 22.453 45.5286 22.3521 45.3856C22.3257 45.3346 22.2945 45.2863 22.2587 45.2414C22.1902 45.1787 22.112 45.1274 22.0271 45.0897C22.0029 45.0772 21.9787 45.0672 21.9537 45.0572C21.8694 45.0265 21.7809 45.0088 21.6912 45.0047C21.6829 45.0047 21.6754 44.9997 21.6671 44.9997C21.2069 44.9997 20.8338 44.6266 20.8338 44.1664C20.8338 43.7062 21.2069 43.3331 21.6671 43.3331H25.0004C25.4606 43.3331 25.8337 42.96 25.8337 42.4998C25.8337 42.0396 25.4606 41.6664 25.0004 41.6664H21.6671C21.2069 41.6664 20.8338 41.2933 20.8338 40.8331C20.8338 40.3729 21.2069 39.9998 21.6671 39.9998H25.0004C25.4606 39.9998 25.8337 39.6267 25.8337 39.1665C25.8337 38.7063 25.4606 38.3331 25.0004 38.3331H21.6671C21.2069 38.3331 20.8338 37.96 20.8338 37.4998V36.6665H25.0004C25.4606 36.6665 25.8337 36.2934 25.8337 35.8332C25.8337 35.373 25.4606 34.9998 25.0004 34.9998H20.0004C19.5402 34.9998 19.1671 34.6267 19.1671 34.1665V32.2124C19.1535 30.9663 18.5796 29.7926 17.6046 29.0166C12.6268 24.9256 11.9079 17.5738 15.9989 12.5959C18.3391 9.74843 21.8872 8.17428 25.5687 8.35012C31.7256 8.71636 36.5619 13.7622 36.6669 19.9292C36.6968 23.4762 35.1019 26.8419 32.3378 29.0649C31.3701 29.862 30.8168 31.0554 30.8336 32.309V34.1665C30.8336 34.6267 30.4605 34.9998 30.0003 34.9998H27.5004C27.0401 34.9998 26.667 35.373 26.667 35.8332C26.667 36.2934 27.0401 36.6665 27.5004 36.6665H29.167V37.4998C29.167 37.96 28.7939 38.3331 28.3337 38.3331H27.5004C27.0401 38.3331 26.667 38.7063 26.667 39.1665C26.667 39.6267 27.0401 39.9998 27.5004 39.9998H28.3337C28.7939 39.9998 29.167 40.3729 29.167 40.8331C29.167 41.2933 28.7939 41.6664 28.3337 41.6664H27.5004C27.0401 41.6664 26.667 42.0396 26.667 42.4998C26.667 42.96 27.0401 43.3331 27.5004 43.3331H28.3337C28.7939 43.3331 29.167 43.7062 29.167 44.1664C29.167 44.6266 28.7939 44.9997 28.3337 44.9997H24.1671C23.7069 44.9997 23.3337 45.3729 23.3337 45.8331C23.3337 46.2933 23.7069 46.6664 24.1671 46.6664H27.3579C26.8978 47.9681 25.4694 48.6504 24.1677 48.1903C23.7691 48.0495 23.4129 47.8098 23.1321 47.4939C22.826 47.1501 22.2992 47.1195 21.9554 47.4255C21.6117 47.7316 21.581 48.2584 21.8871 48.6022C23.4111 50.3196 26.0388 50.4763 27.7562 48.9524C28.4656 48.3229 28.9384 47.4699 29.0962 46.5347C30.4013 46.1268 31.1285 44.7382 30.7207 43.4331C30.6124 43.0863 30.429 42.7677 30.1837 42.4998C31.0503 41.5577 31.0503 40.1085 30.1837 39.1665C30.5998 38.7109 30.8315 38.1168 30.8336 37.4998V36.5132C31.829 36.1613 32.4959 35.2221 32.5003 34.1665V32.309C32.4892 31.5604 32.8135 30.8459 33.3845 30.3616C36.5453 27.8204 38.3688 23.9721 38.3336 19.9167C38.2132 12.868 32.6851 7.10107 25.6479 6.68263Z" fill="black"/>
</g>
</g>
</g>
</g>
<defs>
<clipPath id="clip0_6_0">
<rect width="50" height="50" fill="white"/>
</clipPath>
</defs>
</svg>
