<svg width="38" height="38" viewBox="0 0 38 38" fill="none" xmlns="http://www.w3.org/2000/svg">
<g id="sunrise 1" clip-path="url(#clip0_11_24)">
<g id="Group">
<path id="Vector" d="M1.11328 28.0918C1.74473 28.0918 2.01415 28.3336 2.56344 28.8806C3.1727 29.4873 4.00714 30.3184 5.58474 30.3184C7.16241 30.3184 7.99685 29.4874 8.60611 28.8807C9.35327 28.1366 9.44909 28.2116 9.74351 28.1165C10.5811 27.9713 10.9568 28.3331 11.5066 28.8806C12.1158 29.4873 12.9503 30.3184 14.5279 30.3184C16.1055 30.3184 16.94 29.4874 17.5492 28.8806C18.0984 28.3336 18.3678 28.0918 18.9993 28.0918C19.6308 28.0918 19.9003 28.3336 20.4496 28.8807C21.0588 29.4874 21.8933 30.3184 23.4709 30.3184C25.0487 30.3184 25.883 29.4874 26.4924 28.8807C27.0417 28.3336 27.3112 28.0918 27.9427 28.0918C28.5743 28.0918 28.8438 28.3336 29.3931 28.8807C30.0024 29.4874 30.8369 30.3184 32.4147 30.3184C33.9924 30.3184 34.8269 29.4874 35.4362 28.8807C35.9856 28.3336 36.2551 28.0918 36.8867 28.0918C37.5015 28.0918 38 27.5933 38 26.9785C38 26.3637 37.5015 25.8652 36.8867 25.8652C35.309 25.8652 34.4745 26.6962 33.8652 27.3029C33.3158 27.85 33.0463 28.0918 32.4147 28.0918C31.3899 28.0918 31.1452 27.2917 30.1161 26.5524C33.8593 18.454 27.9214 9.16602 19 9.16602C10.0794 9.16602 4.1397 18.4555 7.88285 26.5526C6.86494 27.2841 6.60606 28.0918 5.58474 28.0918C4.95329 28.0918 4.68387 27.85 4.13458 27.303C3.52539 26.6962 2.69095 25.8652 1.11328 25.8652C0.498453 25.8652 0 26.3637 0 26.9785C0 27.5933 0.498453 28.0918 1.11328 28.0918ZM8.98047 21.4121C8.98047 15.8873 13.4752 11.3926 19 11.3926C26.4329 11.3926 31.2672 19.2368 27.9774 25.8658C26.5711 25.8548 25.7687 26.4592 24.9214 27.3029C24.3721 27.85 24.1026 28.0918 23.4711 28.0918C22.8396 28.0918 22.5701 27.85 22.0209 27.303C21.4116 26.6963 20.5771 25.8652 18.9995 25.8652C17.4218 25.8652 16.5874 26.6962 15.9782 27.303C15.429 27.85 15.1596 28.0918 14.528 28.0918C13.8965 28.0918 13.6271 27.85 13.0778 27.303C12.2099 26.4386 11.4185 25.8557 10.023 25.8658C9.33954 24.4888 8.98047 22.9634 8.98047 21.4121Z" fill="black"/>
<path id="Vector_2" d="M36.8867 31.0605C35.309 31.0605 34.4745 31.8915 33.8652 32.4982C33.3158 33.0453 33.0463 33.2871 32.4147 33.2871C31.7831 33.2871 31.5137 33.0453 30.9643 32.4982C30.355 31.8915 29.5205 31.0605 27.9428 31.0605C26.365 31.0605 25.5307 31.8915 24.9213 32.4982C24.372 33.0453 24.1025 33.2871 23.471 33.2871C22.8395 33.2871 22.5701 33.0453 22.0208 32.4983C21.4115 31.8916 20.5771 31.0605 18.9994 31.0605C17.4217 31.0605 16.5874 31.8915 15.9781 32.4983C15.4289 33.0453 15.1595 33.2871 14.5279 33.2871C13.8964 33.2871 13.627 33.0453 13.0777 32.4983C12.4685 31.8916 11.634 31.0605 10.0563 31.0605C8.4786 31.0605 7.64423 31.8915 7.03497 32.4983C6.48568 33.0453 6.21627 33.2871 5.58474 33.2871C4.95329 33.2871 4.68387 33.0453 4.13458 32.4983C3.52539 31.8915 2.69095 31.0605 1.11328 31.0605C0.498453 31.0605 0 31.559 0 32.1738C0 32.7887 0.498453 33.2871 1.11328 33.2871C1.74473 33.2871 2.01415 33.5289 2.56344 34.0759C3.1727 34.6826 4.00714 35.5137 5.58474 35.5137C7.16241 35.5137 7.99685 34.6827 8.60611 34.076C9.1554 33.5289 9.42489 33.2871 10.0564 33.2871C10.6879 33.2871 10.9574 33.5289 11.5067 34.0759C12.1159 34.6826 12.9504 35.5137 14.5279 35.5137C16.1055 35.5137 16.9401 34.6827 17.5492 34.0759C18.0985 33.5289 18.3679 33.2871 18.9993 33.2871C19.6309 33.2871 19.9003 33.5289 20.4496 34.076C21.0589 34.6827 21.8933 35.5137 23.471 35.5137C25.0488 35.5137 25.8831 34.6827 26.4925 34.076C27.0417 33.5289 27.3112 33.2871 27.9428 33.2871C28.5744 33.2871 28.8439 33.5289 29.3932 34.076C30.0025 34.6827 30.837 35.5137 32.4147 35.5137C33.9925 35.5137 34.8269 34.6827 35.4363 34.076C35.9856 33.5289 36.2551 33.2871 36.8867 33.2871C37.5015 33.2871 38 32.7887 38 32.1738C38 31.559 37.5015 31.0605 36.8867 31.0605Z" fill="black"/>
<path id="Vector_3" d="M19 6.93945C19.6148 6.93945 20.1133 6.441 20.1133 5.82617V3.59961C20.1133 2.98478 19.6148 2.48633 19 2.48633C18.3852 2.48633 17.8867 2.98478 17.8867 3.59961V5.82617C17.8867 6.441 18.3852 6.93945 19 6.93945Z" fill="black"/>
<path id="Vector_4" d="M10.2426 8.47143C10.5516 9.00655 11.2334 9.1849 11.7633 8.87889C12.2958 8.57148 12.4782 7.8906 12.1708 7.35815L11.0575 5.42987C10.7501 4.89743 10.0692 4.71493 9.53678 5.02241C9.00433 5.32983 8.8219 6.01071 9.12931 6.54316L10.2426 8.47143Z" fill="black"/>
<path id="Vector_5" d="M3.01729 13.4703C4.89414 14.5029 4.99738 14.7329 5.50117 14.7329C6.63843 14.7329 7.04107 13.2224 6.05885 12.6553L4.13058 11.542C3.59806 11.2344 2.91717 11.417 2.60983 11.9494C2.30234 12.482 2.48477 13.1628 3.01729 13.4703Z" fill="black"/>
<path id="Vector_6" d="M1.1875 22.5254H3.41406C4.02889 22.5254 4.52734 22.0269 4.52734 21.4121C4.52734 20.7973 4.02889 20.2988 3.41406 20.2988H1.1875C0.572672 20.2988 0.0742188 20.7973 0.0742188 21.4121C0.0742188 22.0269 0.572672 22.5254 1.1875 22.5254Z" fill="black"/>
<path id="Vector_7" d="M33.4727 21.4121C33.4727 22.0269 33.9711 22.5254 34.5859 22.5254H36.8125C37.4273 22.5254 37.9258 22.0269 37.9258 21.4121C37.9258 20.7973 37.4273 20.2988 36.8125 20.2988H34.5859C33.9711 20.2988 33.4727 20.7973 33.4727 21.4121Z" fill="black"/>
<path id="Vector_8" d="M33.0543 14.5834L34.9826 13.4702C35.5151 13.1627 35.6975 12.4819 35.3901 11.9494C35.0827 11.417 34.4019 11.2345 33.8693 11.5419L31.9411 12.6552C31.4086 12.9626 31.2262 13.6435 31.5336 14.176C31.8426 14.7111 32.5244 14.8894 33.0543 14.5834Z" fill="black"/>
<path id="Vector_9" d="M26.236 8.87795C26.7661 9.1841 27.4481 9.00524 27.7567 8.47049L28.87 6.54221C29.1774 6.00977 28.995 5.32888 28.4625 5.02147C27.93 4.71391 27.2491 4.89649 26.9418 5.42893L25.8285 7.35721C25.5211 7.88965 25.7035 8.57054 26.236 8.87795Z" fill="black"/>
</g>
</g>
<defs>
<clipPath id="clip0_11_24">
<rect width="38" height="38" fill="white"/>
</clipPath>
</defs>
</svg>
