<svg width="28" height="30" viewBox="0 0 28 30" fill="none" xmlns="http://www.w3.org/2000/svg">
<path id="Vector" d="M27.6103 12.5106L22.3604 8.99503C22.0918 8.81513 21.7466 8.79842 21.4622 8.95132C21.1776 9.10444 21.0001 9.40221 21.0001 9.72631V10.6052H19.25V0.878904C19.25 0.393447 18.8583 0 18.375 0H0.875021C0.871375 0 0.867957 0.000457763 0.864539 0.000457763C0.380315 0.00617981 0 0.404433 0 0.878904V23.8471C0 24.1557 0.161332 24.4418 0.42475 24.6006L9.17474 29.874C9.75421 30.2231 10.5 29.8063 10.5 29.1203V24.7258H18.375C18.8583 24.7258 19.25 24.3324 19.25 23.8471V15.8784H21.0001V16.7573C21.0001 17.0814 21.1776 17.3794 21.4622 17.5323C21.7461 17.6847 22.0911 17.6689 22.3604 17.4886L27.6103 13.9732C27.8537 13.8102 28 13.5356 28 13.2419C28 12.948 27.8537 12.6736 27.6103 12.5106ZM8.74999 27.5681L1.75004 23.3493V2.43118L8.74999 6.64992V27.5681ZM17.5 22.9682H10.5V6.1521C10.5 5.84357 10.3387 5.55747 10.0753 5.39862L4.03399 1.75781H17.5V10.6052H13.1251C12.6418 10.6052 12.2501 10.9987 12.2501 11.4841V14.9995C12.2501 15.485 12.6418 15.8784 13.1251 15.8784H17.5V22.9682ZM22.7501 15.1151V14.9995C22.7501 14.5143 22.3582 14.1208 21.8751 14.1208H14.0001V12.363H21.8751C22.3582 12.363 22.7501 11.9693 22.7501 11.4841V11.3685L25.5477 13.2419L22.7501 15.1151Z" fill="#FDA43C"/>
</svg>
