<svg width="24" height="24" viewBox="0 0 24 24" fill="none" xmlns="http://www.w3.org/2000/svg">
<g id="wind 2" clip-path="url(#clip0_2_82)">
<g id="Group">
<g id="Group_2">
<g id="Group_3">
<path id="Vector" d="M0.327151 12.7117C1.7469 13.9295 3.35603 15.3098 6.46857 15.3098C9.58121 15.3097 11.1904 13.9295 12.6102 12.7117C13.9529 11.5601 15.1125 10.5654 17.5312 10.5654C19.9499 10.5654 21.1095 11.5601 22.4521 12.7117C22.8451 13.0488 23.437 13.0035 23.7741 12.6105C24.1111 12.2174 24.0659 11.6256 23.6728 11.2885C22.253 10.0708 20.6438 8.69043 17.5312 8.69043C14.4185 8.69043 12.8093 10.0707 11.3895 11.2885C10.0468 12.4401 8.88723 13.4348 6.46857 13.4348C4.04996 13.4348 2.89051 12.4402 1.54792 11.2885C1.15492 10.9514 0.563073 10.9967 0.225948 11.3897C-0.111177 11.7827 -0.0658489 12.3746 0.327151 12.7117Z" fill="#FAA23B"/>
</g>
</g>
</g>
</g>
<defs>
<clipPath id="clip0_2_82">
<rect width="24" height="24" fill="white"/>
</clipPath>
</defs>
</svg>
