<svg width="24" height="24" viewBox="0 0 24 24" fill="none" xmlns="http://www.w3.org/2000/svg">
<g id="wind 1" clip-path="url(#clip0_2_60)">
<g id="Group">
<g id="Group_2">
<g id="Group_3">
<path id="Vector" d="M0.327151 12.7117C1.7469 13.9295 3.35603 15.3098 6.46857 15.3098C9.58121 15.3097 11.1904 13.9295 12.6102 12.7117C13.9529 11.5601 15.1125 10.5654 17.5312 10.5654C19.9499 10.5654 21.1095 11.5601 22.4521 12.7117C22.8451 13.0488 23.437 13.0035 23.7741 12.6105C24.1111 12.2174 24.0659 11.6256 23.6728 11.2885C22.253 10.0708 20.6438 8.69043 17.5312 8.69043C14.4185 8.69043 12.8093 10.0707 11.3895 11.2885C10.0468 12.4401 8.88723 13.4348 6.46857 13.4348C4.04996 13.4348 2.89051 12.4402 1.54792 11.2885C1.15492 10.9514 0.563073 10.9967 0.225948 11.3897C-0.111177 11.7827 -0.0658489 12.3746 0.327151 12.7117Z" fill="#FAA23B"/>
<path id="Vector_2" d="M0.327151 7.58377C1.74685 8.80158 3.35598 10.1819 6.46857 10.1819C9.58121 10.1819 11.1904 8.80158 12.6102 7.58377C13.9529 6.43214 15.1125 5.4375 17.5312 5.4375C19.9498 5.4375 21.1094 6.43209 22.4521 7.58377C22.8452 7.92094 23.4369 7.87552 23.774 7.48247C24.1112 7.08947 24.0657 6.49753 23.6727 6.1605C22.2529 4.94269 20.6437 3.5625 17.5312 3.5625C14.4185 3.5625 12.8093 4.94278 11.3895 6.16059C10.0468 7.31222 8.88723 8.30686 6.46857 8.30686C4.05001 8.30686 2.89051 7.31227 1.54792 6.16059C1.15492 5.82347 0.563026 5.86875 0.225948 6.2618C-0.111177 6.6548 -0.065849 7.24669 0.327151 7.58377Z" fill="#FAA23B"/>
<path id="Vector_3" d="M23.6728 16.4165C22.253 15.1987 20.6438 13.8184 17.5311 13.8184C14.4185 13.8184 12.8093 15.1986 11.3895 16.4165C10.0468 17.5681 8.88719 18.5627 6.46853 18.5627C4.05006 18.5627 2.89052 17.5681 1.54792 16.4165L1.54783 16.4165C1.15483 16.0795 0.563034 16.1247 0.225909 16.5177C-0.111169 16.9107 -0.0658411 17.5026 0.327159 17.8397C1.74691 19.0575 3.35608 20.4377 6.46853 20.4377C9.58117 20.4377 11.1904 19.0574 12.6102 17.8396C13.9529 16.688 15.1125 15.6934 17.5311 15.6934C19.9498 15.6934 21.1094 16.688 22.4521 17.8396C22.8451 18.1767 23.4369 18.1314 23.774 17.7384C24.1111 17.3454 24.0658 16.7535 23.6728 16.4165Z" fill="#FAA23B"/>
</g>
</g>
</g>
</g>
<defs>
<clipPath id="clip0_2_60">
<rect width="24" height="24" fill="white"/>
</clipPath>
</defs>
</svg>
